<?xml version="1.0" standalone="no"?>
<!DOCTYPE svg PUBLIC "-//W3C//DTD SVG 20010904//EN"
 "http://www.w3.org/TR/2001/REC-SVG-20010904/DTD/svg10.dtd">
<svg version="1.0" xmlns="http://www.w3.org/2000/svg"
 width="1500.000000pt" height="1687.000000pt" viewBox="0 0 1500.000000 1687.000000"
 preserveAspectRatio="xMidYMid meet">

<g transform="translate(0.000000,1687.000000) scale(0.100000,-0.100000)"
fill="#000000" stroke="none">
<path d="M0 8435 l0 -8435 7500 0 7500 0 0 8435 0 8435 -7500 0 -7500 0 0
-8435z m7468 7141 c69 -27 94 -43 205 -133 122 -99 176 -119 270 -100 l37 8 2
-88 c8 -288 -27 -378 -168 -434 -58 -23 -66 -24 -339 -21 -154 2 -350 -2 -435
-8 -566 -39 -1085 -199 -1670 -515 -167 -90 -204 -111 -670 -387 -190 -113
-372 -220 -405 -238 -129 -72 -285 -182 -380 -272 -56 -51 -211 -195 -345
-319 -743 -686 -1084 -1098 -1351 -1629 -129 -260 -208 -473 -279 -760 -56
-228 -72 -343 -170 -1246 -49 -451 -96 -838 -104 -860 -7 -21 -39 -89 -69
-150 -72 -143 -97 -219 -97 -292 0 -32 32 -280 70 -550 39 -270 70 -496 70
-502 0 -5 -15 -1 -33 10 -62 38 -123 19 -147 -46 -16 -40 -12 -80 13 -136 53
-119 114 -150 175 -88 17 16 33 30 37 30 10 0 83 -165 202 -460 185 -460 253
-584 428 -785 309 -352 701 -740 1455 -1441 201 -186 460 -430 577 -542 l212
-203 83 16 c46 9 108 23 139 32 59 16 129 64 129 89 0 19 16 18 24 -2 10 -26
7 -73 -8 -107 -16 -39 -96 -114 -130 -123 -14 -3 -24 -10 -21 -14 8 -13 201
-123 320 -183 123 -61 323 -136 459 -172 139 -37 245 -53 504 -75 515 -44 939
-110 1412 -219 181 -42 255 -55 276 -49 187 51 474 100 712 122 89 9 173 21
185 28 12 6 59 47 104 90 45 43 86 78 92 78 27 0 39 33 46 127 l7 97 28 -34
c59 -72 79 -3 36 125 -14 39 -23 71 -21 73 7 7 113 -121 164 -196 l55 -83 18
35 c22 42 83 106 102 106 20 0 35 -22 44 -66 7 -36 10 -29 28 81 22 139 32
148 78 68 17 -29 35 -53 42 -53 11 0 35 42 48 86 4 11 18 32 32 45 24 23 33
24 143 24 l117 0 -4 -56 c-5 -64 8 -96 42 -105 34 -8 79 18 170 100 72 65 80
69 90 52 59 -98 107 -136 173 -136 61 0 124 28 267 119 588 375 1376 941 2224
1598 172 134 316 243 319 243 2 0 2 -48 -1 -107 l-6 -108 20 55 c10 30 31 94
45 142 l27 87 30 -22 c38 -28 98 -29 135 -1 15 11 60 69 100 128 94 141 163
223 275 332 100 96 216 189 225 181 14 -15 -205 -534 -352 -832 -255 -517
-488 -874 -880 -1345 l-162 -195 -6 -70 c-6 -81 -31 -152 -71 -201 -45 -57
-76 -67 -226 -74 -143 -7 -207 -25 -257 -72 -29 -27 -29 -53 2 -113 13 -27 23
-51 20 -53 -2 -2 -20 8 -39 23 -90 69 -155 70 -346 7 -185 -61 -186 -63 -72
-186 65 -70 84 -99 110 -165 23 -58 32 -96 32 -138 l0 -58 -48 50 c-26 28 -77
83 -114 123 l-67 74 -73 -48 c-77 -51 -225 -195 -475 -460 -175 -187 -178
-195 -167 -359 l7 -93 -140 5 c-250 10 -293 -29 -293 -264 0 -86 -3 -103 -15
-103 -35 0 -96 43 -147 102 -90 106 -143 156 -170 163 -32 8 -334 -54 -463
-96 -113 -36 -160 -63 -150 -87 4 -9 9 -36 12 -58 5 -37 2 -44 -21 -59 -22
-14 -39 -16 -102 -10 -65 6 -86 13 -150 51 -120 71 -228 122 -327 156 -126 43
-284 50 -405 20 -81 -21 -81 -21 -149 -1 -466 133 -1064 147 -1902 44 -107
-14 -197 -22 -200 -19 -3 3 -4 42 -2 89 1 49 -2 92 -9 105 l-11 21 -20 -25
c-21 -27 -80 -48 -107 -39 -9 3 -75 43 -147 88 -149 95 -391 228 -615 340 -85
43 -217 111 -292 151 l-137 74 -104 0 c-271 0 -542 96 -732 258 -33 29 -91 67
-130 87 -119 59 -162 66 -460 75 -299 8 -318 11 -460 82 -323 161 -536 489
-636 982 -17 83 -41 171 -55 198 -42 83 -118 145 -193 157 l-34 6 -52 155
c-123 369 -266 723 -510 1270 -184 411 -259 581 -331 747 -157 366 -155 357
-161 649 l-5 232 39 -11 c54 -14 109 -2 130 29 32 49 -2 264 -93 594 -83 302
-201 590 -398 976 l-104 204 23 127 c13 71 51 309 85 531 114 757 190 1062
340 1379 135 284 287 472 660 816 348 320 531 512 595 621 15 25 51 113 79
194 87 246 67 220 524 674 383 380 585 570 798 750 166 140 206 150 487 123
143 -14 211 -16 265 -9 l73 9 34 84 c97 242 331 450 569 506 74 18 202 19 279
4 55 -11 60 -10 119 19 75 37 150 97 320 260 71 67 141 128 157 137 42 21 88
19 101 -4 11 -22 12 -136 1 -224 -8 -68 -11 -69 96 7 228 158 507 285 1148
520 83 30 150 55 151 56 0 0 28 -11 62 -24z m2861 -461 c307 -49 793 -220
1141 -402 434 -227 837 -544 1106 -869 28 -34 370 -571 760 -1195 550 -880
710 -1144 717 -1179 10 -59 81 -617 106 -840 34 -295 52 -570 54 -800 1 -121
6 -220 10 -220 34 0 78 38 127 112 51 76 106 128 135 128 7 0 -3 -41 -27 -112
-41 -118 -106 -359 -132 -488 -38 -191 -87 -568 -102 -788 -4 -57 -11 -99 -15
-95 -4 4 -15 48 -24 97 -28 165 -19 411 30 809 8 67 15 126 15 131 0 5 -16 -9
-35 -31 -94 -110 -184 -57 -185 109 0 85 -12 111 -69 148 -63 40 -214 196
-291 300 -73 100 -179 276 -246 411 l-47 96 29 99 c26 89 29 114 29 244 0 116
-4 156 -19 200 -47 136 -112 226 -219 300 -212 148 -249 195 -346 440 -124
315 -151 429 -151 636 0 68 -2 124 -5 124 -3 0 -60 -27 -128 -60 -129 -63
-213 -87 -270 -76 -48 9 -79 30 -748 508 -902 645 -1217 855 -1715 1144 -153
88 -166 94 -219 94 -216 0 -498 66 -690 163 -154 77 -314 219 -361 321 -48
106 -28 239 49 319 70 71 118 88 292 99 158 11 247 3 306 -28 28 -14 29 -14
43 19 18 43 71 104 110 125 40 22 217 30 596 27 207 -2 313 -7 389 -20z
m-2650 -5317 c-1 -7 -5 -24 -10 -38 -8 -22 -8 -21 -4 8 4 32 4 32 -40 32 -33
0 -45 -4 -48 -17 -4 -14 -5 -12 -6 5 -1 20 3 22 54 22 38 0 55 -4 54 -12z
m-2446 -55 c-13 -2 -35 -2 -50 0 -16 2 -5 4 22 4 28 0 40 -2 28 -4z m2334 -40
c-3 -10 -5 -2 -5 17 0 19 2 27 5 18 2 -10 2 -26 0 -35z m-2418 33 c-2 -2 -22
-6 -44 -9 -28 -5 -34 -4 -20 3 19 8 73 14 64 6z m195 -16 c7 -7 2 -8 -19 -1
-17 5 -39 12 -50 15 -11 3 -2 3 19 1 22 -2 44 -9 50 -15z m2313 -12 c-3 -8 -6
-5 -6 6 -1 11 2 17 5 13 3 -3 4 -12 1 -19z m-2632 -8 c-3 -5 -12 -10 -18 -10
-7 0 -6 4 3 10 19 12 23 12 15 0z m416 -52 c15 -28 5 -21 -21 15 -15 20 -17
27 -6 18 9 -8 22 -23 27 -33z m2206 20 c-3 -8 -6 -5 -6 6 -1 11 2 17 5 13 3
-3 4 -12 1 -19z m-2687 -2 c0 -2 -8 -10 -17 -17 -16 -13 -17 -12 -4 4 13 16
21 21 21 13z m2597 -43 c-3 -10 -5 -2 -5 17 0 19 2 27 5 18 2 -10 2 -26 0 -35z
m-2339 20 c-15 -2 -42 -2 -60 0 -18 2 -6 4 27 4 33 0 48 -2 33 -4z m57 -13 c3
-6 -1 -7 -9 -4 -18 7 -21 14 -7 14 6 0 13 -4 16 -10z m-361 -25 c-9 -14 -18
-25 -21 -25 -5 0 5 18 20 38 17 22 18 13 1 -13z m146 2 c0 -2 -10 -12 -22 -23
l-23 -19 19 23 c18 21 26 27 26 19z m407 -29 c-3 -8 -6 -5 -6 6 -1 11 2 17 5
13 3 -3 4 -12 1 -19z m2080 -20 c-3 -7 -5 -2 -5 12 0 14 2 19 5 13 2 -7 2 -19
0 -25z m83 2 c0 -5 -17 -9 -37 -9 l-38 2 35 7 c19 4 36 8 38 9 1 0 2 -3 2 -9z
m-2617 -20 c-3 -12 -8 -19 -11 -16 -5 6 5 36 12 36 2 0 2 -9 -1 -20z m398 -30
c50 0 58 3 62 20 4 17 4 16 3 -2 -1 -21 -6 -23 -68 -26 -54 -2 -68 0 -68 12 0
8 -1 20 -3 28 -2 7 1 3 7 -9 9 -20 17 -23 67 -23z m-534 -2 c-3 -7 -5 -2 -5
12 0 14 2 19 5 13 2 -7 2 -19 0 -25z m120 -30 c-3 -7 -5 -2 -5 12 0 14 2 19 5
13 2 -7 2 -19 0 -25z m921 -15 c-10 -2 -26 -2 -35 0 -10 3 -2 5 17 5 19 0 27
-2 18 -5z m147 -8 c24 -12 25 -14 5 -8 -14 3 -41 10 -60 14 -34 7 -34 7 -5 7
17 1 44 -5 60 -13z m638 5 c-23 -5 -51 -14 -63 -20 -11 -6 -20 -8 -20 -5 0 11
65 34 95 34 25 -1 23 -3 -12 -9z m142 -5 c24 -12 25 -14 5 -8 -14 3 -41 10
-60 14 -34 7 -34 7 -5 7 17 1 44 -5 60 -13z m328 8 c-7 -2 -21 -2 -30 0 -10 3
-4 5 12 5 17 0 24 -2 18 -5z m122 -7 c19 -8 35 -18 35 -21 0 -3 -9 -1 -19 5
-11 5 -37 14 -58 19 -24 6 -30 9 -15 10 12 1 38 -6 57 -13z m704 10 c-2 -2
-26 -6 -54 -9 -32 -4 -43 -3 -30 3 19 8 93 14 84 6z m126 -11 c24 -12 25 -14
5 -8 -14 3 -41 10 -60 14 -34 7 -34 7 -5 7 17 1 44 -5 60 -13z m-3111 -11 c3
-8 2 -12 -4 -9 -6 3 -10 10 -10 16 0 14 7 11 14 -7z m816 1 c-46 -18 -64 -17
-25 0 17 8 37 14 45 14 8 0 -1 -7 -20 -14z m648 8 c-49 -3 -57 -7 -61 -26 -4
-18 -5 -17 -6 6 -1 27 -1 27 62 25 l62 -2 -57 -3z m612 -7 c0 -2 -7 -7 -16
-10 -8 -3 -12 -2 -9 4 6 10 25 14 25 6z m-2201 -61 c0 -5 -4 -3 -9 5 -5 8 -9
22 -9 30 0 16 17 -16 18 -35z m1256 25 c10 -11 16 -20 13 -20 -3 0 -13 9 -23
20 -10 11 -16 20 -13 20 3 0 13 -9 23 -20z m766 3 c13 -16 12 -17 -3 -4 -10 7
-18 15 -18 17 0 8 8 3 21 -13z m119 3 c0 -2 -8 -10 -17 -17 -16 -13 -17 -12
-4 4 13 16 21 21 21 13z m340 -16 c6 -11 8 -20 6 -20 -3 0 -10 9 -16 20 -6 11
-8 20 -6 20 3 0 10 -9 16 -20z m835 10 c3 -6 -1 -7 -9 -4 -18 7 -21 14 -7 14
6 0 13 -4 16 -10z m-3144 -17 c13 -16 12 -17 -3 -4 -10 7 -18 15 -18 17 0 8 8
3 21 -13z m659 4 c0 -2 -12 -14 -27 -28 l-28 -24 24 28 c23 25 31 32 31 24z
m687 -29 c-3 -7 -5 -2 -5 12 0 14 2 19 5 13 2 -7 2 -19 0 -25z m1611 15 c-10
-2 -26 -2 -35 0 -10 3 -2 5 17 5 19 0 27 -2 18 -5z m222 -44 c6 -22 9 -46 6
-52 -2 -7 -5 -3 -6 8 0 11 -7 37 -14 57 -8 21 -10 35 -5 32 5 -2 13 -23 19
-45z m-2234 25 c18 -14 18 -15 -5 -3 -14 6 -51 9 -87 7 -35 -2 -58 0 -51 4 22
14 122 9 143 -8z m172 -9 c-3 -3 -9 2 -12 12 -6 14 -5 15 5 6 7 -7 10 -15 7
-18z m569 17 c6 -4 -15 -7 -47 -7 -32 0 -53 3 -47 7 7 4 28 8 47 8 19 0 40 -4
47 -8z m243 5 c0 -2 -10 -12 -22 -23 l-23 -19 19 23 c18 21 26 27 26 19z m207
-5 c6 -4 -15 -7 -47 -7 -32 0 -53 3 -47 7 7 4 28 8 47 8 19 0 40 -4 47 -8z
m763 4 c0 -2 -9 -6 -20 -9 -11 -3 -18 -1 -14 4 5 9 34 13 34 5z m114 -5 c4 -5
-3 -7 -14 -4 -23 6 -26 13 -6 13 8 0 17 -4 20 -9z m-829 -31 c10 -11 16 -20
13 -20 -3 0 -13 9 -23 20 -10 11 -16 20 -13 20 3 0 13 -9 23 -20z m665 16 c0
-2 -8 -10 -17 -17 -16 -13 -17 -12 -4 4 13 16 21 21 21 13z m-850 -10 c0 -2
-8 -10 -17 -17 -16 -13 -17 -12 -4 4 13 16 21 21 21 13z m349 -85 c1 -74 -5
-61 -11 24 -3 40 -2 61 3 50 4 -11 8 -44 8 -74z m-1222 57 c-3 -8 -6 -5 -6 6
-1 11 2 17 5 13 3 -3 4 -12 1 -19z m210 0 c-3 -8 -6 -5 -6 6 -1 11 2 17 5 13
3 -3 4 -12 1 -19z m1354 -39 c-5 -26 -9 -34 -10 -19 -1 27 9 73 15 67 2 -2 0
-23 -5 -48z m377 15 c-3 -14 -5 -12 -10 9 -3 19 -2 25 4 19 6 -6 8 -18 6 -28z
m-2878 16 c8 -5 11 -10 5 -10 -5 0 -17 5 -25 10 -8 5 -10 10 -5 10 6 0 17 -5
25 -10z m400 -9 c-15 -29 -14 -30 38 -34 l47 -3 -52 -2 c-32 -1 -53 2 -53 9 0
13 19 49 26 49 2 0 0 -9 -6 -19z m418 -12 c-3 -8 -7 -3 -11 10 -4 17 -3 21 5
13 5 -5 8 -16 6 -23z m502 27 c0 -2 -8 -10 -17 -17 -16 -13 -17 -12 -4 4 13
16 21 21 21 13z m450 -9 c0 -2 -10 -12 -22 -23 l-23 -19 19 23 c18 21 26 27
26 19z m-2035 -25 c-3 -3 -11 0 -18 7 -9 10 -8 11 6 5 10 -3 15 -9 12 -12z
m775 -2 c-6 -11 -13 -20 -16 -20 -2 0 0 9 6 20 6 11 13 20 16 20 2 0 0 -9 -6
-20z m2112 -5 c3 -13 1 -22 -3 -19 -9 5 -13 44 -5 44 2 0 6 -11 8 -25z m341 8
c-13 -2 -33 -2 -45 0 -13 2 -3 4 22 4 25 0 35 -2 23 -4z m-2016 -35 c-3 -7 -5
-2 -5 12 0 14 2 19 5 13 2 -7 2 -19 0 -25z m630 -50 c-2 -18 -4 -6 -4 27 0 33
2 48 4 33 2 -15 2 -42 0 -60z m-1472 52 c10 -11 16 -20 13 -20 -3 0 -13 9 -23
20 -10 11 -16 20 -13 20 3 0 13 -9 23 -20z m722 -17 c-3 -10 -5 -4 -5 12 0 17
2 24 5 18 2 -7 2 -21 0 -30z m884 -18 c-9 -25 -17 -41 -19 -36 -3 10 24 81 31
81 3 0 -3 -20 -12 -45z m326 -2 c-3 -10 -5 -2 -5 17 0 19 2 27 5 18 2 -10 2
-26 0 -35z m-2177 27 c18 -12 2 -12 -25 0 -13 6 -15 9 -5 9 8 0 22 -4 30 -9z
m1277 -12 c-3 -8 -6 -5 -6 6 -1 11 2 17 5 13 3 -3 4 -12 1 -19z m1538 -16 c-3
-3 -11 0 -18 7 -9 10 -8 11 6 5 10 -3 15 -9 12 -12z m-1738 -24 c-3 -7 -5 -2
-5 12 0 14 2 19 5 13 2 -7 2 -19 0 -25z m-123 2 c-7 -7 -60 -9 -135 -7 l-124
3 128 2 c89 1 127 6 127 14 0 6 3 8 7 5 4 -4 2 -12 -3 -17z m1911 10 c13 -6
15 -9 5 -9 -8 0 -22 4 -30 9 -18 12 -2 12 25 0z m-1598 -32 c-3 -7 -5 -2 -5
12 0 14 2 19 5 13 2 -7 2 -19 0 -25z m1020 -5 c-3 -10 -5 -4 -5 12 0 17 2 24
5 18 2 -7 2 -21 0 -30z m663 12 c19 -7 28 -13 20 -13 -8 0 -31 6 -50 13 -19 7
-28 13 -20 13 8 0 31 -6 50 -13z m-2640 -39 c0 -26 -6 -18 -14 19 -5 22 -4 26
4 15 5 -8 10 -24 10 -34z m379 40 c-2 -2 -22 -6 -44 -9 -28 -5 -34 -4 -20 3
19 8 73 14 64 6z m1478 -33 c-3 -10 -5 -4 -5 12 0 17 2 24 5 18 2 -7 2 -21 0
-30z m-1100 -5 c-3 -7 -5 -2 -5 12 0 14 2 19 5 13 2 -7 2 -19 0 -25z m310 -10
c-3 -8 -6 -5 -6 6 -1 11 2 17 5 13 3 -3 4 -12 1 -19z m330 -10 c-3 -7 -5 -2
-5 12 0 14 2 19 5 13 2 -7 2 -19 0 -25z m-450 -10 c-3 -7 -5 -2 -5 12 0 14 2
19 5 13 2 -7 2 -19 0 -25z m1020 0 c-3 -7 -5 -2 -5 12 0 14 2 19 5 13 2 -7 2
-19 0 -25z m-1757 8 c0 -2 -8 -10 -17 -17 -16 -13 -17 -12 -4 4 13 16 21 21
21 13z m416 -16 c0 -8 -1 -10 -3 -3 -3 8 -39 13 -111 16 l-107 3 110 0 c90 -1
110 -4 111 -16z m119 -35 c-4 -25 -9 -44 -12 -41 -2 2 -1 25 2 51 4 25 9 44
12 41 2 -2 1 -25 -2 -51z m1102 23 c-3 -7 -5 -2 -5 12 0 14 2 19 5 13 2 -7 2
-19 0 -25z m708 11 c14 -6 9 -7 -15 -3 -19 4 -44 11 -55 15 -14 6 -9 7 15 3
19 -4 44 -11 55 -15z m-2177 1 c-14 -4 -32 -11 -40 -15 -7 -3 -4 1 6 9 11 9
29 16 40 15 17 -1 16 -2 -6 -9z m679 -32 c-3 -7 -5 -2 -5 12 0 14 2 19 5 13 2
-7 2 -19 0 -25z m-120 -10 c-3 -7 -5 -2 -5 12 0 14 2 19 5 13 2 -7 2 -19 0
-25z m1020 -5 c-3 -10 -5 -4 -5 12 0 17 2 24 5 18 2 -7 2 -21 0 -30z m-2529
20 l-67 -4 -4 -52 -3 -52 -2 58 -2 57 73 -2 72 -2 -67 -3z m449 -15 c-3 -8 -6
-5 -6 6 -1 11 2 17 5 13 3 -3 4 -12 1 -19z m443 19 c0 -2 -10 -12 -22 -23
l-23 -19 19 23 c18 21 26 27 26 19z m1187 -39 c-3 -7 -5 -2 -5 12 0 14 2 19 5
13 2 -7 2 -19 0 -25z m330 0 c-3 -7 -5 -2 -5 12 0 14 2 19 5 13 2 -7 2 -19 0
-25z m818 12 c10 -11 16 -20 13 -20 -3 0 -13 9 -23 20 -10 11 -16 20 -13 20 3
0 13 -9 23 -20z m-2658 -27 c-3 -10 -5 -4 -5 12 0 17 2 24 5 18 2 -7 2 -21 0
-30z m1390 15 c-3 -8 -6 -5 -6 6 -1 11 2 17 5 13 3 -3 4 -12 1 -19z m-786 -11
c-10 -9 -11 -8 -5 6 3 10 9 15 12 12 3 -3 0 -11 -7 -18z m446 -9 c-3 -7 -5 -2
-5 12 0 14 2 19 5 13 2 -7 2 -19 0 -25z m1750 -20 c-2 -13 -4 -5 -4 17 -1 22
1 32 4 23 2 -10 2 -28 0 -40z m-1870 5 c-3 -10 -5 -4 -5 12 0 17 2 24 5 18 2
-7 2 -21 0 -30z m-1440 5 c-3 -8 -6 -5 -6 6 -1 11 2 17 5 13 3 -3 4 -12 1 -19z
m660 0 c-3 -8 -6 -5 -6 6 -1 11 2 17 5 13 3 -3 4 -12 1 -19z m1800 -10 c-3 -7
-5 -2 -5 12 0 14 2 19 5 13 2 -7 2 -19 0 -25z m-450 -10 c-3 -7 -5 -2 -5 12 0
14 2 19 5 13 2 -7 2 -19 0 -25z m-772 -33 c-4 -25 -9 -44 -12 -41 -2 2 -1 25
2 51 4 25 9 44 12 41 2 -2 1 -25 -2 -51z m1102 33 c-3 -8 -6 -5 -6 6 -1 11 2
17 5 13 3 -3 4 -12 1 -19z m420 0 c-3 -8 -6 -5 -6 6 -1 11 2 17 5 13 3 -3 4
-12 1 -19z m132 -8 c12 -36 5 -41 -9 -6 -8 21 -17 25 -62 29 l-53 3 57 2 c54
2 56 1 67 -28z m-2112 -12 c-3 -7 -5 -2 -5 12 0 14 2 19 5 13 2 -7 2 -19 0
-25z m770 -5 c-3 -10 -5 -4 -5 12 0 17 2 24 5 18 2 -7 2 -21 0 -30z m340 5
c-3 -7 -5 -2 -5 12 0 14 2 19 5 13 2 -7 2 -19 0 -25z m-1240 -20 c-3 -7 -5 -2
-5 12 0 14 2 19 5 13 2 -7 2 -19 0 -25z m780 0 c-3 -7 -5 -2 -5 12 0 14 2 19
5 13 2 -7 2 -19 0 -25z m-1387 -3 c13 -14 21 -25 18 -25 -2 0 -15 11 -28 25
-13 14 -21 25 -18 25 2 0 15 -11 28 -25z m-151 -15 c11 -24 11 -24 -3 -6 -9
11 -16 24 -16 30 0 12 5 7 19 -24z m1171 26 c0 -2 -8 -10 -17 -17 -16 -13 -17
-12 -4 4 13 16 21 21 21 13z m937 -28 c-3 -7 -5 -2 -5 12 0 14 2 19 5 13 2 -7
2 -19 0 -25z m330 10 c-3 -8 -6 -5 -6 6 -1 11 2 17 5 13 3 -3 4 -12 1 -19z
m440 0 c-3 -8 -6 -5 -6 6 -1 11 2 17 5 13 3 -3 4 -12 1 -19z m-890 -20 c-3 -7
-5 -2 -5 12 0 14 2 19 5 13 2 -7 2 -19 0 -25z m-1576 2 c-13 -11 -28 -20 -35
-20 -6 0 3 9 19 19 39 25 46 25 16 1z m1236 -12 c-3 -7 -5 -2 -5 12 0 14 2 19
5 13 2 -7 2 -19 0 -25z m1384 15 c13 -16 12 -17 -3 -4 -10 7 -18 15 -18 17 0
8 8 3 21 -13z m-1504 -30 c-3 -10 -5 -4 -5 12 0 17 2 24 5 18 2 -7 2 -21 0
-30z m-1248 1 c10 -9 -55 -3 -69 6 -10 6 -2 7 25 3 22 -3 42 -7 44 -9z m759
-1 c38 5 42 4 22 -4 -30 -13 -107 -6 -123 10 -9 9 -3 9 22 0 18 -6 54 -9 79
-6z m132 -18 c-13 -14 -27 -25 -31 -25 -4 0 4 13 19 28 15 15 29 26 31 25 3
-2 -6 -14 -19 -28z m927 3 c-3 -7 -5 -2 -5 12 0 14 2 19 5 13 2 -7 2 -19 0
-25z m978 14 c-3 -3 -11 0 -18 7 -9 10 -8 11 6 5 10 -3 15 -9 12 -12z m-3012
-41 c-2 -3 -16 8 -31 24 l-27 28 31 -24 c17 -13 30 -26 27 -28z m290 42 c-7
-2 -21 -2 -30 0 -10 3 -4 5 12 5 17 0 24 -2 18 -5z m864 -45 c-2 -13 -4 -5 -4
17 -1 22 1 32 4 23 2 -10 2 -28 0 -40z m110 20 c-3 -7 -5 -2 -5 12 0 14 2 19
5 13 2 -7 2 -19 0 -25z m650 -5 c-3 -10 -5 -4 -5 12 0 17 2 24 5 18 2 -7 2
-21 0 -30z m949 5 l29 -33 -32 29 c-31 28 -38 36 -30 36 2 0 16 -15 33 -32z
m284 22 c-8 -5 -40 -9 -70 -8 l-55 1 60 7 c33 4 65 7 70 8 6 1 3 -3 -5 -8z
m-2410 -32 c15 -21 17 -28 6 -19 -16 13 -41 51 -33 51 2 0 14 -15 27 -32z
m837 0 c-3 -7 -5 -2 -5 12 0 14 2 19 5 13 2 -7 2 -19 0 -25z m910 0 c-3 -8 -6
-5 -6 6 -1 11 2 17 5 13 3 -3 4 -12 1 -19z m-1030 -20 c-3 -7 -5 -2 -5 12 0
14 2 19 5 13 2 -7 2 -19 0 -25z m910 10 c-3 -8 -6 -5 -6 6 -1 11 2 17 5 13 3
-3 4 -12 1 -19z m-337 -13 c0 -24 -2 -25 -65 -25 -56 0 -65 3 -64 18 0 10 3
12 6 5 3 -8 25 -13 59 -13 47 0 54 2 54 20 0 11 2 20 5 20 3 0 5 -11 5 -25z
m-1610 9 c0 -7 -66 -34 -82 -33 -7 0 7 8 32 19 25 10 46 18 48 19 1 1 2 -1 2
-5z m840 -14 c0 -18 -6 -20 -57 -18 l-58 2 53 3 c37 3 52 8 52 19 0 7 2 14 5
14 3 0 5 -9 5 -20z m-224 -5 c-11 -8 -25 -15 -30 -15 -6 1 0 7 14 15 32 19 40
18 16 0z m534 0 c0 -12 -13 -15 -67 -13 l-68 2 63 3 c34 2 62 8 62 13 0 6 2
10 5 10 3 0 5 -7 5 -15z m1355 -3 c-3 -3 -11 0 -18 7 -9 10 -8 11 6 5 10 -3
15 -9 12 -12z m310 9 c-13 -11 -74 -31 -94 -30 -9 0 9 8 39 19 68 22 66 22 55
11z m-3150 -11 c13 -6 15 -9 5 -9 -8 0 -22 4 -30 9 -18 12 -2 12 25 0z m755
-14 c8 -4 -1 -4 -20 -1 -19 3 -39 10 -44 15 -10 10 19 3 64 -14z m1607 7 c-20
-2 -52 -2 -70 0 -17 2 0 4 38 4 39 0 53 -2 32 -4z m-2304 -10 c-7 -2 -19 -2
-25 0 -7 3 -2 5 12 5 14 0 19 -2 13 -5z m170 0 c-7 -2 -19 -2 -25 0 -7 3 -2 5
12 5 14 0 19 -2 13 -5z m674 1 c-3 -3 -12 -4 -19 -1 -8 3 -5 6 6 6 11 1 17 -2
13 -5z m2010 0 c-3 -3 -12 -4 -19 -1 -8 3 -5 6 6 6 11 1 17 -2 13 -5z m-2754
-11 c-13 -2 -35 -2 -50 0 -16 2 -5 4 22 4 28 0 40 -2 28 -4z m680 0 c-13 -2
-33 -2 -45 0 -13 2 -3 4 22 4 25 0 35 -2 23 -4z m2170 0 c-13 -2 -35 -2 -50 0
-16 2 -5 4 22 4 28 0 40 -2 28 -4z m-2446 -150 c-20 -2 -52 -2 -70 0 -17 2 0
4 38 4 39 0 53 -2 32 -4z m1536 0 c-7 -2 -21 -2 -30 0 -10 3 -4 5 12 5 17 0
24 -2 18 -5z m55 -38 c-3 -3 -9 2 -12 12 -6 14 -5 15 5 6 7 -7 10 -15 7 -18z
m-3680 8 c-21 -2 -55 -2 -75 0 -21 2 -4 4 37 4 41 0 58 -2 38 -4z m521 0 c-75
-4 -77 -5 -89 -34 -17 -39 -23 -32 -8 9 l12 32 81 -2 80 -2 -76 -3z m579 0
c-21 -2 -55 -2 -75 0 -21 2 -4 4 37 4 41 0 58 -2 38 -4z m-1201 -60 c-3 -10
-5 -2 -5 17 0 19 2 27 5 18 2 -10 2 -26 0 -35z m1079 10 c-8 -15 -15 -25 -16
-21 0 12 23 58 27 54 3 -2 -2 -17 -11 -33z m-389 -35 c-2 -13 -4 -3 -4 22 0
25 2 35 4 23 2 -13 2 -33 0 -45z m1520 40 c-3 -8 -6 -5 -6 6 -1 11 2 17 5 13
3 -3 4 -12 1 -19z m1565 -47 c-10 -14 -28 -27 -38 -28 -15 -2 -15 -1 3 6 25
11 42 40 44 73 l2 23 4 -24 c3 -14 -3 -35 -15 -50z m-3645 -23 c-2 -18 -4 -6
-4 27 0 33 2 48 4 33 2 -15 2 -42 0 -60z m1960 60 c-3 -8 -6 -5 -6 6 -1 11 2
17 5 13 3 -3 4 -12 1 -19z m-921 -74 c-19 -38 -35 -66 -36 -62 0 11 63 138 68
134 2 -2 -13 -35 -32 -72z m1031 24 c-3 -7 -5 -2 -5 12 0 14 2 19 5 13 2 -7 2
-19 0 -25z m-120 -10 c-3 -7 -5 -2 -5 12 0 14 2 19 5 13 2 -7 2 -19 0 -25z
m1574 15 c13 -16 12 -17 -3 -4 -10 7 -18 15 -18 17 0 8 8 3 21 -13z m489 -10
c0 -12 -3 -14 -8 -6 -4 6 -30 13 -57 16 l-50 3 58 2 c48 2 57 -1 57 -15z
m-4133 -45 c-2 -13 -4 -5 -4 17 -1 22 1 32 4 23 2 -10 2 -28 0 -40z m1029 15
c-8 -15 -15 -25 -16 -21 0 12 23 58 27 54 3 -2 -2 -17 -11 -33z m2661 21 c-3
-3 -12 -4 -19 -1 -8 3 -5 6 6 6 11 1 17 -2 13 -5z m-3000 -71 c-2 -16 -4 -5
-4 22 0 28 2 40 4 28 2 -13 2 -35 0 -50z m1490 35 c-3 -7 -5 -2 -5 12 0 14 2
19 5 13 2 -7 2 -19 0 -25z m-120 -15 c-3 -10 -5 -4 -5 12 0 17 2 24 5 18 2 -7
2 -21 0 -30z m2060 5 c-3 -7 -5 -2 -5 12 0 14 2 19 5 13 2 -7 2 -19 0 -25z
m-110 -10 c-3 -8 -6 -5 -6 6 -1 11 2 17 5 13 3 -3 4 -12 1 -19z m-3571 -35
c-8 -15 -15 -25 -16 -21 0 12 23 58 27 54 3 -2 -2 -17 -11 -33z m-309 -65 c-2
-18 -4 -4 -4 32 0 36 2 50 4 33 2 -18 2 -48 0 -65z m2040 60 c-3 -7 -5 -2 -5
12 0 14 2 19 5 13 2 -7 2 -19 0 -25z m1940 -5 c-3 -10 -5 -4 -5 12 0 17 2 24
5 18 2 -7 2 -21 0 -30z m-3530 -5 c-3 -7 -5 -2 -5 12 0 14 2 19 5 13 2 -7 2
-19 0 -25z m414 5 c-12 -20 -14 -14 -5 12 4 9 9 14 11 11 3 -2 0 -13 -6 -23z
m1056 -5 c-3 -7 -5 -2 -5 12 0 14 2 19 5 13 2 -7 2 -19 0 -25z m-2040 -40 c-2
-13 -4 -3 -4 22 0 25 2 35 4 23 2 -13 2 -33 0 -45z m3980 20 c-3 -8 -6 -5 -6
6 -1 11 2 17 5 13 3 -3 4 -12 1 -19z m-3290 -50 c-2 -13 -4 -3 -4 22 0 25 2
35 4 23 2 -13 2 -33 0 -45z m1460 30 c-3 -7 -5 -2 -5 12 0 14 2 19 5 13 2 -7
2 -19 0 -25z m-120 -15 c-3 -10 -5 -4 -5 12 0 17 2 24 5 18 2 -7 2 -21 0 -30z
m2159 17 c52 0 94 -3 94 -7 0 -14 -193 1 -196 15 -1 7 0 8 3 2 3 -6 44 -10 99
-10z m-3609 -42 c-2 -13 -4 -5 -4 17 -1 22 1 32 4 23 2 -10 2 -28 0 -40z m941
45 c-10 -2 -28 -2 -40 0 -13 2 -5 4 17 4 22 1 32 -1 23 -4z m90 0 c-10 -2 -26
-2 -35 0 -10 3 -2 5 17 5 19 0 27 -2 18 -5z m721 -3 c-25 -4 -60 -15 -77 -24
-18 -9 -32 -14 -32 -11 0 13 87 44 120 44 32 -1 31 -2 -11 -9z m109 3 c-10 -2
-26 -2 -35 0 -10 3 -2 5 17 5 19 0 27 -2 18 -5z m640 0 c-10 -2 -28 -2 -40 0
-13 2 -5 4 17 4 22 1 32 -1 23 -4z m95 0 c-7 -2 -21 -2 -30 0 -10 3 -4 5 12 5
17 0 24 -2 18 -5z m1525 0 c-10 -2 -28 -2 -40 0 -13 2 -5 4 17 4 22 1 32 -1
23 -4z m90 0 c-10 -2 -26 -2 -35 0 -10 3 -2 5 17 5 19 0 27 -2 18 -5z m-3353
-13 c-27 -12 -43 -12 -25 0 8 5 22 9 30 9 10 0 8 -3 -5 -9z m245 -5 c33 -19
21 -19 -21 0 -19 8 -27 14 -19 14 8 0 26 -6 40 -14z m830 0 c33 -19 21 -19
-21 0 -19 8 -27 14 -19 14 8 0 26 -6 40 -14z m730 0 c17 -9 30 -18 30 -21 0
-2 -12 2 -27 9 -16 8 -35 17 -43 20 -10 4 -11 6 -2 6 7 1 26 -6 42 -14z m469
-7 c-1 -17 -3 -18 -6 -6 -3 13 -18 18 -66 21 l-62 3 68 2 c64 2 67 1 66 -20z
m229 15 c-15 -2 -42 -2 -60 0 -18 2 -6 4 27 4 33 0 48 -2 33 -4z m677 -3 c-27
-12 -43 -12 -25 0 8 5 22 9 30 9 10 0 8 -3 -5 -9z m245 -5 c17 -9 30 -18 30
-21 0 -2 -12 2 -27 9 -16 8 -35 17 -43 20 -10 4 -11 6 -2 6 7 1 26 -6 42 -14z
m-1881 1 c-2 -2 -15 -9 -29 -15 -24 -11 -24 -11 -6 3 16 13 49 24 35 12z
m-1589 -10 c0 -2 -7 -7 -16 -10 -8 -3 -12 -2 -9 4 6 10 25 14 25 6z m748 -35
c-2 -22 -6 -37 -9 -33 -7 7 0 72 7 72 3 0 3 -18 2 -39z m1449 7 c-3 -7 -5 -2
-5 12 0 14 2 19 5 13 2 -7 2 -19 0 -25z m270 -5 c-3 -10 -5 -4 -5 12 0 17 2
24 5 18 2 -7 2 -21 0 -30z m713 33 c0 -2 -7 -7 -16 -10 -8 -3 -12 -2 -9 4 6
10 25 14 25 6z m-4087 -41 c-9 -19 -18 -33 -21 -31 -4 5 26 66 33 66 3 0 -3
-16 -12 -35z m-476 -37 c-2 -13 -4 -3 -4 22 0 25 2 35 4 23 2 -13 2 -33 0 -45z
m1743 37 c13 -14 21 -25 18 -25 -2 0 -15 11 -28 25 -13 14 -21 25 -18 25 2 0
15 -11 28 -25z m267 -7 c-3 -7 -5 -2 -5 12 0 14 2 19 5 13 2 -7 2 -19 0 -25z
m2250 0 c-3 -7 -5 -2 -5 12 0 14 2 19 5 13 2 -7 2 -19 0 -25z m663 7 c13 -14
21 -25 18 -25 -2 0 -15 11 -28 25 -13 14 -21 25 -18 25 2 0 15 -11 28 -25z
m-4584 -61 c-19 -38 -35 -66 -36 -62 0 11 63 138 68 134 2 -2 -13 -35 -32 -72z
m3351 39 c-3 -10 -5 -4 -5 12 0 17 2 24 5 18 2 -7 2 -21 0 -30z m-2766 0 c-12
-20 -14 -14 -5 12 4 9 9 14 11 11 3 -2 0 -13 -6 -23z m379 24 c0 -2 -19 -21
-42 -42 l-43 -40 40 43 c36 39 45 47 45 39z m1555 -42 c-14 -21 -25 -34 -25
-30 0 11 43 75 48 71 2 -2 -8 -21 -23 -41z m1625 42 c0 -2 -10 -12 -22 -23
l-23 -19 19 23 c18 21 26 27 26 19z m-4363 -99 c-2 -18 -4 -4 -4 32 0 36 2 50
4 33 2 -18 2 -48 0 -65z m570 25 c-2 -16 -4 -5 -4 22 0 28 2 40 4 28 2 -13 2
-35 0 -50z m2406 60 c-7 -2 -19 -2 -25 0 -7 3 -2 5 12 5 14 0 19 -2 13 -5z
m474 -25 c-3 -7 -5 -2 -5 12 0 14 2 19 5 13 2 -7 2 -19 0 -25z m-2990 -40 c-2
-13 -4 -3 -4 22 0 25 2 35 4 23 2 -13 2 -33 0 -45z m971 55 c-15 -2 -42 -2
-60 0 -18 2 -6 4 27 4 33 0 48 -2 33 -4z m795 0 c-7 -2 -21 -2 -30 0 -10 3 -4
5 12 5 17 0 24 -2 18 -5z m677 -4 c-14 -6 -34 -18 -45 -27 -12 -9 -8 -5 7 11
16 15 36 27 46 26 12 0 9 -3 -8 -10z m817 -11 c-3 -8 -6 -5 -6 6 -1 11 2 17 5
13 3 -3 4 -12 1 -19z m891 15 c-15 -2 -42 -2 -60 0 -18 2 -6 4 27 4 33 0 48
-2 33 -4z m-3279 -7 c-10 -9 -69 -36 -69 -32 0 7 52 35 64 36 5 0 7 -2 5 -4z
m156 -6 c3 -6 -1 -7 -9 -4 -18 7 -21 14 -7 14 6 0 13 -4 16 -10z m390 -45 c-4
-25 -9 -44 -12 -41 -2 2 -1 25 2 51 4 25 9 44 12 41 2 -2 1 -25 -2 -51z m274
46 c-14 -5 -35 -14 -47 -20 -12 -6 -22 -9 -22 -7 0 10 55 35 75 35 16 -1 14
-2 -6 -8z m137 -7 c19 -15 19 -15 -1 -6 -11 5 -27 12 -35 15 -13 5 -13 6 1 6
8 1 24 -6 35 -15z m765 -1 c13 -16 12 -17 -3 -4 -10 7 -18 15 -18 17 0 8 8 3
21 -13z m1458 14 c-16 -12 -79 -45 -79 -42 0 7 63 45 74 45 5 0 7 -1 5 -3z
m156 -7 c3 -6 -1 -7 -9 -4 -18 7 -21 14 -7 14 6 0 13 -4 16 -10z m185 -44 c0
-12 -5 -7 -19 24 -11 24 -11 24 3 6 9 -11 16 -24 16 -30z m-1653 2 c-3 -7 -5
-2 -5 12 0 14 2 19 5 13 2 -7 2 -19 0 -25z m360 0 c-3 -7 -5 -2 -5 12 0 14 2
19 5 13 2 -7 2 -19 0 -25z m260 10 c-3 -8 -6 -5 -6 6 -1 11 2 17 5 13 3 -3 4
-12 1 -19z m912 -31 c-2 -3 -15 10 -28 27 l-24 31 28 -27 c16 -15 27 -29 24
-31z m-3858 -23 c-16 -33 -30 -56 -31 -52 0 11 53 118 58 114 2 -2 -10 -30
-27 -62z m1464 46 c10 -11 16 -20 13 -20 -3 0 -13 9 -23 20 -10 11 -16 20 -13
20 3 0 13 -9 23 -20z m1100 -35 c-4 -25 -9 -44 -12 -41 -2 2 -1 25 2 51 4 25
9 44 12 41 2 -2 1 -25 -2 -51z m-2669 8 c-8 -15 -15 -25 -16 -21 0 12 23 58
27 54 3 -2 -2 -17 -11 -33z m484 33 c0 -2 -8 -10 -17 -17 -16 -13 -17 -12 -4
4 13 16 21 21 21 13z m820 1 c0 -2 -17 -19 -37 -38 l-38 -34 34 38 c33 34 41
42 41 34z m1857 -39 c-3 -7 -5 -2 -5 12 0 14 2 19 5 13 2 -7 2 -19 0 -25z
m347 7 c-9 -14 -18 -25 -21 -25 -5 0 5 18 20 38 17 22 18 13 1 -13z m146 22
c0 -2 -10 -12 -22 -23 l-23 -19 19 23 c18 21 26 27 26 19z m-4533 -69 c-2 -13
-4 -3 -4 22 0 25 2 35 4 23 2 -13 2 -33 0 -45z m1191 17 c-12 -24 -23 -43 -26
-41 -4 5 36 86 43 86 3 0 -5 -20 -17 -45z m470 20 c-3 -3 -9 2 -12 12 -6 14
-5 15 5 6 7 -7 10 -15 7 -18z m119 3 c-3 -8 -6 -5 -6 6 -1 11 2 17 5 13 3 -3
4 -12 1 -19z m1056 -88 c5 -8 1 -6 -7 4 -10 13 -15 37 -15 65 l2 46 6 -50 c4
-27 10 -57 14 -65z m104 73 c-3 -10 -5 -4 -5 12 0 17 2 24 5 18 2 -7 2 -21 0
-30z m260 15 c-3 -8 -6 -5 -6 6 -1 11 2 17 5 13 3 -3 4 -12 1 -19z m720 -10
c-3 -7 -5 -2 -5 12 0 14 2 19 5 13 2 -7 2 -19 0 -25z m-260 -10 c-3 -7 -5 -2
-5 12 0 14 2 19 5 13 2 -7 2 -19 0 -25z m1310 10 c-3 -8 -6 -5 -6 6 -1 11 2
17 5 13 3 -3 4 -12 1 -19z m-4390 -50 c-2 -13 -4 -3 -4 22 0 25 2 35 4 23 2
-13 2 -33 0 -45z m2721 55 c-15 -2 -42 -2 -60 0 -18 2 -6 4 27 4 33 0 48 -2
33 -4z m-2611 -65 c-2 -13 -4 -3 -4 22 0 25 2 35 4 23 2 -13 2 -33 0 -45z
m606 17 c-9 -19 -18 -33 -21 -31 -4 5 26 66 33 66 3 0 -3 -16 -12 -35z m374
13 c-3 -8 -6 -5 -6 6 -1 11 2 17 5 13 3 -3 4 -12 1 -19z m120 -55 c-2 -16 -4
-3 -4 27 0 30 2 43 4 28 2 -16 2 -40 0 -55z m830 30 c-3 -10 -5 -2 -5 17 0 19
2 27 5 18 2 -10 2 -26 0 -35z m1408 -8 c-4 -25 -9 -44 -12 -41 -2 2 -1 25 2
51 4 25 9 44 12 41 2 -2 1 -25 -2 -51z m-2058 13 c-3 -7 -5 -2 -5 12 0 14 2
19 5 13 2 -7 2 -19 0 -25z m-1850 -75 c-2 -21 -4 -6 -4 32 0 39 2 55 4 38 2
-18 2 -50 0 -70z m1982 75 c-7 -13 -18 -41 -25 -63 -7 -22 -13 -31 -13 -20 -1
22 34 105 44 105 3 0 0 -10 -6 -22z m916 -26 c-5 -5 -63 26 -69 37 -4 5 12 0
33 -12 22 -12 38 -23 36 -25z m632 11 c-3 -10 -5 -4 -5 12 0 17 2 24 5 18 2
-7 2 -21 0 -30z m260 5 c-3 -7 -5 -2 -5 12 0 14 2 19 5 13 2 -7 2 -19 0 -25z
m-3071 -15 c-8 -15 -15 -25 -16 -21 0 12 23 58 27 54 3 -2 -2 -17 -11 -33z
m3505 10 c-12 -20 -14 -14 -5 12 4 9 9 14 11 11 3 -2 0 -13 -6 -23z m-1844
-75 c-2 -18 -4 -4 -4 32 0 36 2 50 4 33 2 -18 2 -48 0 -65z m1030 60 c-3 -7
-5 -2 -5 12 0 14 2 19 5 13 2 -7 2 -19 0 -25z m-3520 -50 c-2 -13 -4 -3 -4 22
0 25 2 35 4 23 2 -13 2 -33 0 -45z m1950 30 c-3 -7 -5 -2 -5 12 0 14 2 19 5
13 2 -7 2 -19 0 -25z m-1370 -40 c-2 -13 -4 -3 -4 22 0 25 2 35 4 23 2 -13 2
-33 0 -45z m2470 56 c-3 -3 -12 -4 -19 -1 -8 3 -5 6 6 6 11 1 17 -2 13 -5z
m840 -26 c-3 -7 -5 -2 -5 12 0 14 2 19 5 13 2 -7 2 -19 0 -25z m-2329 15 c-54
-2 -142 -2 -195 0 -54 1 -10 3 97 3 107 0 151 -2 98 -3z m2069 -25 c-3 -7 -5
-2 -5 12 0 14 2 19 5 13 2 -7 2 -19 0 -25z m690 10 c-3 -8 -6 -5 -6 6 -1 11 2
17 5 13 3 -3 4 -12 1 -19z m421 15 c-54 -2 -142 -2 -195 0 -54 1 -10 3 97 3
107 0 151 -2 98 -3z m-4051 -70 c-2 -16 -4 -5 -4 22 0 28 2 40 4 28 2 -13 2
-35 0 -50z m450 45 c-3 -8 -6 -5 -6 6 -1 11 2 17 5 13 3 -3 4 -12 1 -19z
m1470 -30 c-2 -13 -4 -5 -4 17 -1 22 1 32 4 23 2 -10 2 -28 0 -40z m269 21 c3
-6 -5 -3 -20 6 -14 10 -26 19 -26 22 0 7 39 -17 46 -28z m269 16 c39 -17 21
-18 -25 0 -19 7 -28 14 -20 14 8 0 29 -6 45 -14z m362 -22 c-3 -10 -5 -4 -5
12 0 17 2 24 5 18 2 -7 2 -21 0 -30z m1450 5 c-3 -7 -5 -2 -5 12 0 14 2 19 5
13 2 -7 2 -19 0 -25z m-3191 -23 c-5 -13 -44 -15 -258 -13 l-253 3 253 2 252
3 1 23 c0 12 3 16 6 9 3 -7 2 -19 -1 -27z m2231 3 c-3 -7 -5 -2 -5 12 0 14 2
19 5 13 2 -7 2 -19 0 -25z m-2060 -10 c-3 -7 -5 -2 -5 12 0 14 2 19 5 13 2 -7
2 -19 0 -25z m2370 -90 c-2 -24 -4 -5 -4 42 0 47 2 66 4 43 2 -24 2 -62 0 -85z
m-3180 5 c-2 -21 -4 -4 -4 37 0 41 2 58 4 38 2 -21 2 -55 0 -75z m2488 52 c-4
-25 -9 -44 -12 -41 -2 2 -1 25 2 51 4 25 9 44 12 41 2 -2 1 -25 -2 -51z m262
33 c-3 -8 -6 -5 -6 6 -1 11 2 17 5 13 3 -3 4 -12 1 -19z m-627 -13 c13 -14 21
-25 18 -25 -2 0 -15 11 -28 25 -13 14 -21 25 -18 25 2 0 15 -11 28 -25z m247
-17 c-3 -7 -5 -2 -5 12 0 14 2 19 5 13 2 -7 2 -19 0 -25z m1316 25 c-67 -2
-179 -2 -250 0 -70 1 -15 3 122 3 138 0 195 -2 128 -3z m-4806 -70 c-2 -16 -4
-5 -4 22 0 28 2 40 4 28 2 -13 2 -35 0 -50z m580 5 c-2 -13 -4 -3 -4 22 0 25
2 35 4 23 2 -13 2 -33 0 -45z m2420 56 c-3 -3 -12 -4 -19 -1 -8 3 -5 6 6 6 11
1 17 -2 13 -5z m-2890 -101 c-2 -21 -4 -6 -4 32 0 39 2 55 4 38 2 -18 2 -50 0
-70z m1810 65 c-3 -7 -5 -2 -5 12 0 14 2 19 5 13 2 -7 2 -19 0 -25z m120 10
c-3 -8 -6 -5 -6 6 -1 11 2 17 5 13 3 -3 4 -12 1 -19z m550 0 c-3 -8 -6 -5 -6
6 -1 11 2 17 5 13 3 -3 4 -12 1 -19z m478 7 c39 -17 21 -18 -25 0 -19 7 -28
14 -20 14 8 0 29 -6 45 -14z m-1832 -45 c4 -30 3 -38 -3 -25 -8 19 -14 83 -6
74 2 -2 6 -24 9 -49z m2624 18 c-3 -7 -5 -2 -5 12 0 14 2 19 5 13 2 -7 2 -19
0 -25z m550 -15 c-3 -10 -5 -2 -5 17 0 19 2 27 5 18 2 -10 2 -26 0 -35z
m-4241 -20 c-14 -26 -25 -45 -26 -41 0 12 43 98 48 94 2 -2 -8 -26 -22 -53z
m521 -25 c-2 -18 -4 -6 -4 27 0 33 2 48 4 33 2 -15 2 -42 0 -60z m2438 52 c10
-11 16 -20 13 -20 -3 0 -13 9 -23 20 -10 11 -16 20 -13 20 3 0 13 -9 23 -20z
m352 -12 c-3 -7 -5 -2 -5 12 0 14 2 19 5 13 2 -7 2 -19 0 -25z m-1570 -20 c-3
-7 -5 -2 -5 12 0 14 2 19 5 13 2 -7 2 -19 0 -25z m152 -13 c0 -5 -4 -3 -9 5
-5 8 -9 22 -9 30 0 16 17 -16 18 -35z m-1323 -6 c-9 -19 -15 -29 -16 -22 0 15
22 64 27 60 2 -2 -3 -19 -11 -38z m85 -35 c-16 -33 -30 -56 -31 -52 0 11 53
118 58 114 2 -2 -10 -30 -27 -62z m2766 34 c-3 -7 -5 -2 -5 12 0 14 2 19 5 13
2 -7 2 -19 0 -25z m-440 -15 c-3 -10 -5 -4 -5 12 0 17 2 24 5 18 2 -7 2 -21 0
-30z m320 0 c-3 -10 -5 -4 -5 12 0 17 2 24 5 18 2 -7 2 -21 0 -30z m986 -32
c12 -13 40 -32 62 -42 22 -10 34 -19 27 -19 -40 0 -133 83 -131 118 0 11 4 9
10 -8 6 -14 20 -36 32 -49z m-4446 -8 c-2 -16 -4 -5 -4 22 0 28 2 40 4 28 2
-13 2 -35 0 -50z m580 5 c-2 -13 -4 -3 -4 22 0 25 2 35 4 23 2 -13 2 -33 0
-45z m1973 42 c-6 -11 -13 -20 -16 -20 -2 0 0 9 6 20 6 11 13 20 16 20 2 0 0
-9 -6 -20z m289 -2 c-1 -17 -3 -18 -6 -6 -3 13 -18 18 -66 21 l-62 3 68 2 c64
2 67 1 66 -20z m418 -10 c-3 -7 -5 -2 -5 12 0 14 2 19 5 13 2 -7 2 -19 0 -25z
m700 0 c-3 -7 -5 -2 -5 12 0 14 2 19 5 13 2 -7 2 -19 0 -25z m-1537 19 c0 -2
-15 -16 -32 -33 l-33 -29 29 33 c28 30 36 37 36 29z m-1291 -52 c0 -5 -4 -3
-9 5 -5 8 -9 22 -9 30 0 16 17 -16 18 -35z m541 39 c-34 -7 -108 -8 -103 -1 2
4 30 6 61 6 31 -1 50 -3 42 -5z m16 -22 c-17 -16 -18 -16 -5 5 7 12 15 20 18
17 3 -2 -3 -12 -13 -22z m201 -4 c-3 -7 -5 -2 -5 12 0 14 2 19 5 13 2 -7 2
-19 0 -25z m1950 -20 c-2 -13 -4 -5 -4 17 -1 22 1 32 4 23 2 -10 2 -28 0 -40z
m923 48 c0 -2 -8 -10 -17 -17 -16 -13 -17 -12 -4 4 13 16 21 21 21 13z m83 -3
c-13 -2 -35 -2 -50 0 -16 2 -5 4 22 4 28 0 40 -2 28 -4z m-1276 -40 c-3 -10
-5 -4 -5 12 0 17 2 24 5 18 2 -7 2 -21 0 -30z m-3346 4 c-10 -9 -11 -8 -5 6 3
10 9 15 12 12 3 -3 0 -11 -7 -18z m1109 -41 c19 -8 29 -15 22 -16 -22 0 -66
27 -92 57 l-25 28 30 -27 c17 -15 46 -34 65 -42z m3531 46 c-5 -10 -18 -25
-27 -33 -11 -9 -9 -2 6 19 26 35 36 42 21 14z m-2331 4 c0 -2 -8 -10 -17 -17
-16 -13 -17 -12 -4 4 13 16 21 21 21 13z m917 -28 c-3 -7 -5 -2 -5 12 0 14 2
19 5 13 2 -7 2 -19 0 -25z m-1907 18 c0 -2 -8 -10 -17 -17 -16 -13 -17 -12 -4
4 13 16 21 21 21 13z m2774 -12 c3 -8 2 -12 -4 -9 -6 3 -10 10 -10 16 0 14 7
11 14 -7z m406 12 c0 -2 -8 -10 -17 -17 -16 -13 -17 -12 -4 4 13 16 21 21 21
13z m-3050 -9 c0 -2 -19 -21 -42 -42 l-43 -40 40 43 c36 39 45 47 45 39z m489
-33 c14 -12 -19 -1 -35 12 -18 14 -18 14 6 3 14 -6 27 -13 29 -15z m1852 8
c-7 -2 -18 1 -23 6 -8 8 -4 9 13 5 13 -4 18 -8 10 -11z m-3424 -54 c-2 -13 -4
-3 -4 22 0 25 2 35 4 23 2 -13 2 -33 0 -45z m1723 52 c-8 -5 -22 -9 -30 -9
-10 0 -8 3 5 9 27 12 43 12 25 0z m686 -18 c35 2 58 0 51 -4 -32 -21 -177 2
-177 28 0 2 14 -3 32 -12 22 -12 49 -15 94 -12z m561 -4 c-3 -7 -5 -2 -5 12 0
14 2 19 5 13 2 -7 2 -19 0 -25z m-327 19 c0 -2 -15 -16 -32 -33 l-33 -29 29
33 c28 30 36 37 36 29z m883 -4 c-13 -2 -35 -2 -50 0 -16 2 -5 4 22 4 28 0 40
-2 28 -4z m-4023 -81 c43 2 76 0 73 -4 -2 -5 -40 -8 -84 -8 l-79 0 2 48 1 47
4 -43 4 -43 79 3z m1367 72 c-3 -3 -12 -4 -19 -1 -8 3 -5 6 6 6 11 1 17 -2 13
-5z m420 -16 c-3 -8 -6 -5 -6 6 -1 11 2 17 5 13 3 -3 4 -12 1 -19z m366 15
c-13 -2 -35 -2 -50 0 -16 2 -5 4 22 4 28 0 40 -2 28 -4z m1194 -15 c-3 -8 -6
-5 -6 6 -1 11 2 17 5 13 3 -3 4 -12 1 -19z m1200 16 c-3 -3 -12 -4 -19 -1 -8
3 -5 6 6 6 11 1 17 -2 13 -5z m-3224 -11 c-7 -2 -21 -2 -30 0 -10 3 -4 5 12 5
17 0 24 -2 18 -5z m637 -18 c13 -14 21 -25 18 -25 -2 0 -15 11 -28 25 -13 14
-21 25 -18 25 2 0 15 -11 28 -25z m2543 18 c-7 -2 -21 -2 -30 0 -10 3 -4 5 12
5 17 0 24 -2 18 -5z m207 3 c0 -2 -8 -10 -17 -17 -16 -13 -17 -12 -4 4 13 16
21 21 21 13z m-3619 -23 c13 -16 12 -17 -3 -4 -10 7 -18 15 -18 17 0 8 8 3 21
-13z m2684 -3 c10 -11 16 -20 13 -20 -3 0 -13 9 -23 20 -10 11 -16 20 -13 20
3 0 13 -9 23 -20z m252 -12 c-3 -7 -5 -2 -5 12 0 14 2 19 5 13 2 -7 2 -19 0
-25z m-1691 7 c-11 -8 -25 -15 -30 -15 -6 1 0 7 14 15 32 19 40 18 16 0z
m-501 -38 l50 -3 -57 -2 c-49 -2 -58 1 -58 16 0 11 3 13 8 5 4 -6 30 -13 57
-16z m304 -18 c28 -1 30 -3 11 -6 -28 -6 -127 14 -135 27 -3 4 16 2 42 -6 25
-8 62 -15 82 -15z m666 7 c11 -3 2 -3 -19 -1 -22 2 -44 9 -50 15 -7 7 -2 8 19
1 17 -5 39 -12 50 -15z m1545 14 c8 -5 11 -10 5 -10 -5 0 -17 5 -25 10 -8 5
-10 10 -5 10 6 0 17 -5 25 -10z m-3727 -7 c-24 -2 -62 -2 -85 0 -24 2 -5 4 42
4 47 0 66 -2 43 -4z m767 -4 c-14 -6 -54 -12 -90 -14 l-65 -4 64 9 c34 5 68
11 75 14 6 2 18 4 26 5 8 0 4 -5 -10 -10z m855 1 c-11 -5 -31 -8 -45 -8 -23 0
-22 1 5 8 42 11 65 11 40 0z m750 0 c-11 -5 -31 -8 -45 -8 -23 0 -22 1 5 8 42
11 65 11 40 0z m432 3 c-20 -2 -52 -2 -70 0 -17 2 0 4 38 4 39 0 53 -2 32 -4z
m566 0 c-23 -2 -64 -2 -90 0 -26 2 -7 3 42 3 50 0 71 -1 48 -3z m582 -3 c-11
-5 -29 -8 -40 -8 -16 0 -15 2 5 8 34 11 60 11 35 0z m-3352 -7 c-7 -2 -19 -2
-25 0 -7 3 -2 5 12 5 14 0 19 -2 13 -5z m3180 0 c-7 -2 -19 -2 -25 0 -7 3 -2
5 12 5 14 0 19 -2 13 -5z m-1500 -10 c-13 -2 -35 -2 -50 0 -16 2 -5 4 22 4 28
0 40 -2 28 -4z m1590 0 c-13 -2 -35 -2 -50 0 -16 2 -5 4 22 4 28 0 40 -2 28
-4z m-2225 -431 l3 -133 32 3 32 3 3 118 c2 102 1 117 -14 117 -29 0 -8 25 24
28 l32 3 0 -131 c0 -107 3 -132 15 -136 39 -15 5 -24 -95 -24 -101 0 -140 10
-90 23 18 5 20 14 20 116 0 101 -2 111 -20 121 -29 15 -14 32 23 28 l32 -3 3
-133z m460 110 c3 -16 -2 -22 -17 -22 -24 0 -35 15 -27 36 9 23 40 13 44 -14z
m2100 -105 c2 -101 6 -129 17 -133 20 -8 19 -20 -1 -28 -9 -4 -27 0 -40 9 -14
9 -25 11 -29 5 -3 -6 -24 -10 -45 -10 -29 0 -43 6 -54 22 -20 29 -20 102 -1
132 19 29 67 50 95 43 17 -4 20 0 20 23 0 17 -7 33 -16 38 -24 13 -7 34 24 30
l27 -3 3 -128z m-2718 -3 c23 -69 48 -128 56 -131 31 -12 11 -23 -41 -23 -58
0 -66 5 -39 25 13 9 15 18 7 41 -8 26 -15 29 -55 32 -43 3 -46 1 -57 -29 -12
-34 -8 -49 15 -49 8 0 14 -4 14 -10 0 -5 -25 -10 -55 -10 -54 0 -73 13 -36 25
12 4 28 30 44 73 67 180 68 182 87 182 15 0 27 -25 60 -126z m1409 111 c48
-24 48 -85 0 -119 l-22 -15 28 -41 c16 -23 40 -50 54 -61 20 -16 22 -22 12
-29 -29 -17 -81 21 -112 83 -13 24 -26 37 -39 37 -17 0 -20 -7 -20 -44 0 -36
4 -46 20 -51 39 -12 19 -25 -40 -25 -58 0 -80 12 -40 23 18 5 20 14 20 112 0
98 -2 107 -20 112 -11 3 -20 9 -20 13 0 21 141 25 179 5z m-479 -50 c0 -21 5
-25 30 -25 17 0 30 -4 30 -10 0 -5 -14 -10 -30 -10 l-31 0 3 -67 c3 -67 3 -68
31 -68 33 1 30 -15 -5 -33 -53 -25 -78 9 -78 108 0 38 -4 60 -12 63 -9 3 -3
15 16 36 36 38 46 39 46 6z m-478 -40 c-4 -19 -2 -19 20 3 33 30 58 29 58 -4
0 -21 -3 -24 -20 -19 -34 11 -50 -12 -50 -71 0 -49 2 -54 25 -60 46 -12 26
-24 -40 -24 -63 0 -86 12 -45 23 17 4 20 14 20 70 0 57 -3 67 -20 72 -27 8
-25 23 3 28 38 8 52 2 49 -18z m166 -63 c2 -61 7 -84 17 -89 31 -11 13 -23
-35 -23 -48 0 -66 12 -35 24 11 4 15 22 15 71 0 49 -4 67 -15 71 -20 8 -19 21
3 27 43 12 47 5 50 -81z m213 78 c24 0 25 -20 1 -27 -13 -3 -18 -11 -15 -26 6
-29 -32 -64 -72 -69 -36 -4 -40 -22 -5 -26 14 -2 42 -8 63 -13 32 -8 37 -14
37 -38 0 -34 -25 -59 -73 -72 -70 -19 -137 33 -92 71 11 9 12 17 5 31 -8 14
-5 22 10 37 18 17 19 20 5 32 -22 19 -19 66 8 90 18 18 30 21 66 16 24 -3 52
-6 62 -6z m289 -5 c13 -16 10 -47 -6 -52 -6 -2 -16 8 -22 22 -13 28 -37 33
-46 10 -6 -16 11 -36 54 -62 52 -31 52 -82 -1 -104 -37 -15 -82 -2 -87 25 -6
31 16 43 34 18 16 -23 48 -29 59 -12 3 5 -2 16 -12 24 -10 8 -33 27 -50 41
-18 15 -33 35 -33 46 0 46 81 79 110 44z m510 -5 c11 -11 20 -33 20 -50 0 -30
-1 -30 -55 -30 -64 0 -71 -15 -30 -56 20 -20 32 -24 55 -19 18 4 30 2 30 -3 0
-15 -66 -35 -90 -27 -35 11 -60 54 -60 102 0 80 81 132 130 83z m160 5 c14
-17 10 -47 -7 -52 -7 -3 -17 7 -23 21 -11 29 -37 34 -47 9 -4 -10 2 -22 18
-34 68 -51 79 -62 79 -79 0 -24 -46 -60 -75 -60 -13 0 -33 8 -46 19 -20 16
-22 21 -10 35 13 15 16 15 36 -4 12 -11 29 -20 38 -20 28 0 19 27 -15 51 -44
29 -58 48 -58 75 0 44 82 73 110 39z m174 -7 c9 -12 16 -35 16 -50 0 -27 -2
-28 -55 -28 -63 0 -71 -15 -30 -56 21 -21 31 -24 60 -18 45 8 45 -3 0 -22 -49
-20 -63 -18 -96 15 -24 24 -29 38 -29 76 0 38 5 52 29 76 37 36 83 39 105 7z
m113 2 c5 -21 6 -21 19 -1 12 16 25 19 84 18 72 0 93 -9 64 -25 -15 -9 -15
-13 1 -61 9 -28 18 -51 20 -51 2 0 11 23 20 51 16 48 16 51 -1 64 -22 16 -22
17 29 20 40 3 57 -8 34 -22 -8 -4 -27 -44 -42 -88 -28 -77 -41 -99 -56 -89 -4
2 -19 40 -35 85 -26 75 -52 109 -62 81 -2 -7 -13 -10 -27 -6 -30 7 -45 -19
-45 -80 0 -40 3 -46 25 -52 47 -12 25 -24 -42 -23 -65 0 -67 1 -45 16 19 13
22 24 22 79 0 54 -3 64 -20 69 -38 12 -20 28 38 34 8 0 16 -8 19 -19z m427 -2
c9 -12 16 -35 16 -50 0 -27 -2 -28 -55 -28 -63 0 -71 -15 -30 -56 21 -21 31
-24 60 -18 43 8 45 0 5 -21 -43 -22 -68 -19 -102 15 -28 28 -30 35 -26 82 4
40 12 57 32 75 35 30 80 30 100 1z"/>
<path d="M1610 6491 c0 -6 16 -37 36 -71 45 -77 70 -149 79 -231 12 -108 52
-162 156 -215 27 -13 51 -24 54 -24 2 0 -12 26 -32 57 -20 31 -66 128 -103
214 -76 178 -110 241 -142 264 -25 17 -48 20 -48 6z"/>
<path d="M1426 6459 c-30 -23 -35 -69 -10 -90 8 -7 45 -50 81 -96 37 -46 68
-82 70 -80 7 7 -78 271 -90 279 -18 11 -21 10 -51 -13z"/>
<path d="M8197 7262 c-20 -22 -22 -91 -4 -116 9 -12 23 -17 42 -14 29 3 30 5
33 60 3 49 0 58 -20 72 -28 20 -31 20 -51 -2z"/>
<path d="M5498 7270 l-16 -50 35 0 c32 0 35 2 29 25 -8 32 -25 75 -29 75 -2 0
-10 -22 -19 -50z"/>
<path d="M6900 7300 c0 -57 1 -60 25 -60 30 0 65 32 65 60 0 28 -35 60 -65 60
-24 0 -25 -3 -25 -60z"/>
<path d="M6309 7259 c-16 -31 4 -71 34 -67 26 4 34 36 17 67 -14 27 -36 27
-51 0z"/>
<path d="M6294 7085 c-9 -22 14 -45 45 -45 35 0 54 14 49 36 -4 26 -85 33 -94
9z"/>
<path d="M7146 7258 c-22 -32 -20 -38 13 -38 36 0 46 13 31 40 -14 26 -25 25
-44 -2z"/>
<path d="M7476 7258 c-23 -32 -20 -38 19 -38 27 0 35 4 35 18 0 18 -18 42 -31
42 -5 0 -15 -10 -23 -22z"/>
<path d="M8016 7258 c-23 -32 -20 -38 19 -38 27 0 35 4 35 18 0 18 -18 42 -31
42 -5 0 -15 -10 -23 -22z"/>
</g>
</svg>
